<svg width="1593" height="474" viewBox="0 0 1593 474" fill="none" xmlns="http://www.w3.org/2000/svg">
<path fill-rule="evenodd" clip-rule="evenodd" d="M1593 0H0V474H1593V0ZM8 180.5V68C10.5 59 20.5 41.0999 40.5 41.5L636 38C639.333 36.8333 648.5 31.7998 658.5 21C664.833 15.6665 681.2 5.2998 696 6.5H1556C1565.5 7.5 1584.9 14.3 1586.5 33.5V270.5C1584.83 278.333 1577.2 294.6 1560 297H1300.5C1293 298.667 1277.4 306.6 1275 325L1271 444C1270.5 450.833 1265.5 466.3 1249.5 473.5H222C214.833 473.333 199.6 468.8 196 452V330C193.833 321.5 184.1 303.9 162.5 301.5H34.5C26.167 300 9.09961 292.6 7.5 275L8 180.5Z" fill="black"/>
</svg>
