<svg width="582" height="150" viewBox="0 0 582 150" fill="none" xmlns="http://www.w3.org/2000/svg">
<path d="M7.161 23.83C6.039 23.83 5.027 23.6393 4.125 23.258C3.23033 22.8767 2.48967 22.334 1.903 21.63C1.32367 20.9187 0.946 20.079 0.77 19.111L2.794 18.792C3.05067 19.7893 3.58233 20.5703 4.389 21.135C5.203 21.6923 6.16 21.971 7.26 21.971C7.97133 21.971 8.613 21.861 9.185 21.641C9.76433 21.4137 10.2227 21.091 10.56 20.673C10.8973 20.255 11.066 19.76 11.066 19.188C11.066 18.836 11.0037 18.5353 10.879 18.286C10.7617 18.0293 10.5967 17.813 10.384 17.637C10.1787 17.4537 9.944 17.2997 9.68 17.175C9.416 17.0503 9.141 16.9477 8.855 16.867L4.818 15.668C4.378 15.536 3.95267 15.371 3.542 15.173C3.13133 14.9677 2.76467 14.7147 2.442 14.414C2.11933 14.106 1.86267 13.7393 1.672 13.314C1.48133 12.8813 1.386 12.3717 1.386 11.785C1.386 10.8463 1.628 10.047 2.112 9.387C2.60333 8.71967 3.267 8.21 4.103 7.858C4.939 7.506 5.88133 7.33367 6.93 7.341C7.99333 7.34833 8.943 7.539 9.779 7.913C10.6223 8.27967 11.319 8.80767 11.869 9.497C12.4263 10.1863 12.8003 11.0113 12.991 11.972L10.912 12.335C10.802 11.6897 10.5563 11.136 10.175 10.674C9.801 10.2047 9.33167 9.84533 8.767 9.596C8.20233 9.33933 7.58267 9.20733 6.908 9.2C6.26267 9.19267 5.67967 9.29533 5.159 9.508C4.63833 9.72067 4.224 10.0177 3.916 10.399C3.608 10.773 3.454 11.2057 3.454 11.697C3.454 12.181 3.59333 12.5733 3.872 12.874C4.15067 13.1673 4.49167 13.402 4.895 13.578C5.30567 13.7467 5.70533 13.886 6.094 13.996L9.108 14.865C9.45267 14.9603 9.84867 15.0923 10.296 15.261C10.7507 15.4297 11.1907 15.668 11.616 15.976C12.0413 16.2767 12.3933 16.68 12.672 17.186C12.9507 17.6847 13.09 18.3153 13.09 19.078C13.09 19.8407 12.936 20.519 12.628 21.113C12.3273 21.707 11.9057 22.2057 11.363 22.609C10.8203 23.005 10.1897 23.3057 9.471 23.511C8.75233 23.7237 7.98233 23.83 7.161 23.83ZM19.4784 23.5V9.519H14.0774V7.66H26.8374V9.519H21.4364V23.5H19.4784ZM34.8368 23.83C33.6122 23.83 32.5305 23.577 31.5918 23.071C30.6532 22.565 29.9162 21.8573 29.3808 20.948C28.8528 20.0313 28.5888 18.957 28.5888 17.725V7.671L30.5688 7.66V17.56C30.5688 18.308 30.6935 18.9607 30.9428 19.518C31.1995 20.068 31.5368 20.5263 31.9548 20.893C32.3728 21.2597 32.8312 21.5347 33.3298 21.718C33.8358 21.894 34.3382 21.982 34.8368 21.982C35.3428 21.982 35.8488 21.8903 36.3548 21.707C36.8608 21.5237 37.3192 21.2523 37.7298 20.893C38.1478 20.5263 38.4815 20.0643 38.7308 19.507C38.9802 18.9497 39.1048 18.3007 39.1048 17.56V7.66H41.0848V17.725C41.0848 18.9497 40.8172 20.0203 40.2818 20.937C39.7538 21.8537 39.0205 22.565 38.0818 23.071C37.1432 23.577 36.0615 23.83 34.8368 23.83ZM44.165 23.5V7.66H46.145L54.406 20.035V7.66H56.386V23.5H54.406L46.145 11.114V23.5H44.165ZM59.4619 23.5V7.66H61.4419L69.7029 20.035V7.66H71.6829V23.5H69.7029L61.4419 11.114V23.5H59.4619ZM74.9788 23.5V7.66H76.9368V23.5H74.9788ZM80.2373 23.5V7.66H82.2173L90.4783 20.035V7.66H92.4583V23.5H90.4783L82.2173 11.114V23.5H80.2373ZM101.947 23.83C100.862 23.83 99.8718 23.6393 98.9771 23.258C98.0825 22.8767 97.3125 22.3303 96.6671 21.619C96.0218 20.9003 95.5231 20.035 95.1711 19.023C94.8265 18.0037 94.6541 16.856 94.6541 15.58C94.6541 13.8933 94.9548 12.434 95.5561 11.202C96.1575 9.97 97.0045 9.02033 98.0971 8.353C99.1898 7.67833 100.473 7.341 101.947 7.341C103.722 7.341 105.152 7.75533 106.237 8.584C107.322 9.40533 108.07 10.531 108.481 11.961L106.501 12.368C106.171 11.4073 105.628 10.641 104.873 10.069C104.118 9.497 103.175 9.211 102.046 9.211C100.865 9.20367 99.8828 9.46767 99.0981 10.003C98.3208 10.531 97.7341 11.2753 97.3381 12.236C96.9421 13.1967 96.7405 14.3113 96.7331 15.58C96.7258 16.8413 96.9201 17.9487 97.3161 18.902C97.7121 19.8553 98.3025 20.6033 99.0871 21.146C99.8791 21.6813 100.865 21.9527 102.046 21.96C103.065 21.9673 103.923 21.773 104.62 21.377C105.317 20.981 105.856 20.409 106.237 19.661C106.618 18.913 106.849 18.0147 106.93 16.966H103.564V15.349H108.998C109.02 15.4957 109.031 15.6717 109.031 15.877C109.038 16.075 109.042 16.2107 109.042 16.284C109.042 17.7287 108.771 19.023 108.228 20.167C107.693 21.3037 106.897 22.1983 105.841 22.851C104.792 23.5037 103.494 23.83 101.947 23.83ZM115.644 23.5V7.66H121.903C122.057 7.66 122.24 7.66733 122.453 7.682C122.665 7.68933 122.871 7.71133 123.069 7.748C123.927 7.88 124.645 8.17333 125.225 8.628C125.811 9.08267 126.251 9.65833 126.545 10.355C126.838 11.0443 126.985 11.8107 126.985 12.654C126.985 13.49 126.834 14.2563 126.534 14.953C126.24 15.6423 125.8 16.218 125.214 16.68C124.634 17.1347 123.919 17.428 123.069 17.56C122.871 17.5893 122.665 17.6113 122.453 17.626C122.24 17.6407 122.057 17.648 121.903 17.648H117.602V23.5H115.644ZM117.602 15.789H121.837C121.976 15.789 122.134 15.7817 122.31 15.767C122.493 15.7523 122.665 15.7267 122.827 15.69C123.333 15.5727 123.743 15.36 124.059 15.052C124.381 14.7367 124.616 14.37 124.763 13.952C124.909 13.5267 124.983 13.094 124.983 12.654C124.983 12.214 124.909 11.785 124.763 11.367C124.616 10.9417 124.381 10.5713 124.059 10.256C123.743 9.94067 123.333 9.728 122.827 9.618C122.665 9.574 122.493 9.54833 122.31 9.541C122.134 9.52633 121.976 9.519 121.837 9.519H117.602V15.789ZM129.179 23.5V7.66H131.137V14.645H139.475V7.66H141.433V23.5H139.475V16.504H131.137V23.5H129.179ZM151.031 23.83C149.454 23.83 148.116 23.4817 147.016 22.785C145.916 22.0883 145.076 21.1203 144.497 19.881C143.925 18.6417 143.639 17.208 143.639 15.58C143.639 13.952 143.925 12.5183 144.497 11.279C145.076 10.0397 145.916 9.07167 147.016 8.375C148.116 7.67833 149.454 7.33 151.031 7.33C152.615 7.33 153.957 7.67833 155.057 8.375C156.157 9.07167 156.993 10.0397 157.565 11.279C158.137 12.5183 158.423 13.952 158.423 15.58C158.423 17.208 158.137 18.6417 157.565 19.881C156.993 21.1203 156.157 22.0883 155.057 22.785C153.957 23.4817 152.615 23.83 151.031 23.83ZM151.031 21.96C152.211 21.9673 153.194 21.7033 153.979 21.168C154.771 20.6253 155.361 19.8737 155.75 18.913C156.146 17.9523 156.344 16.8413 156.344 15.58C156.344 14.3113 156.146 13.2003 155.75 12.247C155.361 11.2937 154.771 10.5493 153.979 10.014C153.194 9.47867 152.211 9.20733 151.031 9.2C149.85 9.19267 148.867 9.45667 148.083 9.992C147.305 10.5273 146.719 11.2753 146.323 12.236C145.927 13.1967 145.725 14.3113 145.718 15.58C145.71 16.8413 145.905 17.9487 146.301 18.902C146.697 19.8553 147.287 20.6033 148.072 21.146C148.864 21.6813 149.85 21.9527 151.031 21.96ZM164.283 23.5V9.519H158.882V7.66H171.642V9.519H166.241V23.5H164.283ZM179.906 23.83C178.329 23.83 176.991 23.4817 175.891 22.785C174.791 22.0883 173.951 21.1203 173.372 19.881C172.8 18.6417 172.514 17.208 172.514 15.58C172.514 13.952 172.8 12.5183 173.372 11.279C173.951 10.0397 174.791 9.07167 175.891 8.375C176.991 7.67833 178.329 7.33 179.906 7.33C181.49 7.33 182.832 7.67833 183.932 8.375C185.032 9.07167 185.868 10.0397 186.44 11.279C187.012 12.5183 187.298 13.952 187.298 15.58C187.298 17.208 187.012 18.6417 186.44 19.881C185.868 21.1203 185.032 22.0883 183.932 22.785C182.832 23.4817 181.49 23.83 179.906 23.83ZM179.906 21.96C181.086 21.9673 182.069 21.7033 182.854 21.168C183.646 20.6253 184.236 19.8737 184.625 18.913C185.021 17.9523 185.219 16.8413 185.219 15.58C185.219 14.3113 185.021 13.2003 184.625 12.247C184.236 11.2937 183.646 10.5493 182.854 10.014C182.069 9.47867 181.086 9.20733 179.906 9.2C178.725 9.19267 177.742 9.45667 176.958 9.992C176.18 10.5273 175.594 11.2753 175.198 12.236C174.802 13.1967 174.6 14.3113 174.593 15.58C174.585 16.8413 174.78 17.9487 175.176 18.902C175.572 19.8553 176.162 20.6033 176.947 21.146C177.739 21.6813 178.725 21.9527 179.906 21.96ZM195.92 23.83C194.834 23.83 193.844 23.6393 192.95 23.258C192.055 22.8767 191.285 22.3303 190.64 21.619C189.994 20.9003 189.496 20.035 189.144 19.023C188.799 18.0037 188.627 16.856 188.627 15.58C188.627 13.8933 188.927 12.434 189.529 11.202C190.13 9.97 190.977 9.02033 192.07 8.353C193.162 7.67833 194.446 7.341 195.92 7.341C197.694 7.341 199.124 7.75533 200.21 8.584C201.295 9.40533 202.043 10.531 202.454 11.961L200.474 12.368C200.144 11.4073 199.601 10.641 198.846 10.069C198.09 9.497 197.148 9.211 196.019 9.211C194.838 9.20367 193.855 9.46767 193.071 10.003C192.293 10.531 191.707 11.2753 191.311 12.236C190.915 13.1967 190.713 14.3113 190.706 15.58C190.698 16.8413 190.893 17.9487 191.289 18.902C191.685 19.8553 192.275 20.6033 193.06 21.146C193.852 21.6813 194.838 21.9527 196.019 21.96C197.038 21.9673 197.896 21.773 198.593 21.377C199.289 20.981 199.828 20.409 200.21 19.661C200.591 18.913 200.822 18.0147 200.903 16.966H197.537V15.349H202.971C202.993 15.4957 203.004 15.6717 203.004 15.877C203.011 16.075 203.015 16.2107 203.015 16.284C203.015 17.7287 202.743 19.023 202.201 20.167C201.665 21.3037 200.87 22.1983 199.814 22.851C198.765 23.5037 197.467 23.83 195.92 23.83ZM205.212 23.5V7.66H211.471C211.625 7.66 211.808 7.66733 212.021 7.682C212.234 7.68933 212.439 7.71133 212.637 7.748C213.495 7.88 214.214 8.17333 214.793 8.628C215.38 9.08267 215.82 9.65833 216.113 10.355C216.406 11.0443 216.553 11.8107 216.553 12.654C216.553 13.8787 216.234 14.942 215.596 15.844C214.958 16.7387 214.023 17.2997 212.791 17.527L212.043 17.648H207.17V23.5H205.212ZM214.639 23.5L211.515 17.054L213.451 16.46L216.883 23.5H214.639ZM207.17 15.789H211.405C211.544 15.789 211.702 15.7817 211.878 15.767C212.061 15.7523 212.234 15.7267 212.395 15.69C212.901 15.5727 213.312 15.36 213.627 15.052C213.95 14.7367 214.184 14.37 214.331 13.952C214.478 13.5267 214.551 13.094 214.551 12.654C214.551 12.214 214.478 11.785 214.331 11.367C214.184 10.9417 213.95 10.5713 213.627 10.256C213.312 9.94067 212.901 9.728 212.395 9.618C212.234 9.574 212.061 9.54833 211.878 9.541C211.702 9.52633 211.544 9.519 211.405 9.519H207.17V15.789ZM218.206 23.5L223.508 7.66H226.236L231.538 23.5H229.503L224.542 8.804H225.158L220.241 23.5H218.206ZM220.758 19.793V17.956H228.986V19.793H220.758ZM233.507 23.5V7.66H239.766C239.92 7.66 240.103 7.66733 240.316 7.682C240.528 7.68933 240.734 7.71133 240.932 7.748C241.79 7.88 242.508 8.17333 243.088 8.628C243.674 9.08267 244.114 9.65833 244.408 10.355C244.701 11.0443 244.848 11.8107 244.848 12.654C244.848 13.49 244.697 14.2563 244.397 14.953C244.103 15.6423 243.663 16.218 243.077 16.68C242.497 17.1347 241.782 17.428 240.932 17.56C240.734 17.5893 240.528 17.6113 240.316 17.626C240.103 17.6407 239.92 17.648 239.766 17.648H235.465V23.5H233.507ZM235.465 15.789H239.7C239.839 15.789 239.997 15.7817 240.173 15.767C240.356 15.7523 240.528 15.7267 240.69 15.69C241.196 15.5727 241.606 15.36 241.922 15.052C242.244 14.7367 242.479 14.37 242.626 13.952C242.772 13.5267 242.846 13.094 242.846 12.654C242.846 12.214 242.772 11.785 242.626 11.367C242.479 10.9417 242.244 10.5713 241.922 10.256C241.606 9.94067 241.196 9.728 240.69 9.618C240.528 9.574 240.356 9.54833 240.173 9.541C239.997 9.52633 239.839 9.519 239.7 9.519H235.465V15.789ZM247.042 23.5V7.66H249V14.645H257.338V7.66H259.296V23.5H257.338V16.504H249V23.5H247.042ZM266.177 23.5V16.911L260.842 7.66H263.119L267.167 14.667L271.204 7.66H273.481L268.157 16.911V23.5H266.177ZM278.538 23.5V7.66H284.709C285.655 7.66 286.462 7.85433 287.129 8.243C287.804 8.63167 288.317 9.145 288.669 9.783C289.028 10.4137 289.208 11.0957 289.208 11.829C289.208 12.687 288.988 13.4387 288.548 14.084C288.108 14.7293 287.514 15.173 286.766 15.415L286.744 14.876C287.763 15.1473 288.555 15.646 289.12 16.372C289.685 17.098 289.967 17.9633 289.967 18.968C289.967 19.892 289.776 20.6913 289.395 21.366C289.021 22.0407 288.478 22.565 287.767 22.939C287.063 23.313 286.227 23.5 285.259 23.5H278.538ZM280.518 21.63H284.885C285.472 21.63 285.996 21.5237 286.458 21.311C286.92 21.091 287.283 20.783 287.547 20.387C287.818 19.991 287.954 19.5143 287.954 18.957C287.954 18.4217 287.833 17.9413 287.591 17.516C287.356 17.0907 287.023 16.7533 286.59 16.504C286.165 16.2473 285.67 16.119 285.105 16.119H280.518V21.63ZM280.518 14.271H284.687C285.156 14.271 285.578 14.172 285.952 13.974C286.333 13.7687 286.634 13.4827 286.854 13.116C287.081 12.7493 287.195 12.3203 287.195 11.829C287.195 11.147 286.964 10.5897 286.502 10.157C286.04 9.72433 285.435 9.508 284.687 9.508H280.518V14.271ZM295.288 23.5V16.911L289.953 7.66H292.23L296.278 14.667L300.315 7.66H302.592L297.268 16.911V23.5H295.288Z" fill="#62646C"/>
<path d="M5.6 125.5V67.9H23.64C24.1733 67.9 25.16 67.9133 26.6 67.94C28.0667 67.9667 29.4667 68.0733 30.8 68.26C35.3067 68.82 39.0933 70.4333 42.16 73.1C45.2533 75.7667 47.5867 79.1533 49.16 83.26C50.7333 87.34 51.52 91.82 51.52 96.7C51.52 101.607 50.7333 106.113 49.16 110.22C47.5867 114.3 45.2533 117.673 42.16 120.34C39.0933 122.98 35.3067 124.58 30.8 125.14C29.4667 125.327 28.0667 125.433 26.6 125.46C25.16 125.487 24.1733 125.5 23.64 125.5H5.6ZM14.16 117.54H23.64C24.5467 117.54 25.6267 117.513 26.88 117.46C28.1333 117.407 29.24 117.3 30.2 117.14C33.1333 116.58 35.5067 115.313 37.32 113.34C39.16 111.34 40.5067 108.887 41.36 105.98C42.2133 103.073 42.64 99.98 42.64 96.7C42.64 93.3133 42.2 90.18 41.32 87.3C40.44 84.3933 39.08 81.9667 37.24 80.02C35.4267 78.0467 33.08 76.7933 30.2 76.26C29.24 76.0733 28.12 75.9667 26.84 75.94C25.5867 75.8867 24.52 75.86 23.64 75.86H14.16V117.54ZM55.2719 125.5L73.9919 67.9H86.0319L104.752 125.5H96.0719L78.8319 72.94H80.9919L63.9519 125.5H55.2719ZM64.9919 112.5V104.66H95.0719V112.5H64.9919ZM111.928 125.5V67.9H119.488L140.368 111.22L161.128 67.9H168.768V125.46H160.848V86.06L142.248 125.5H138.448L119.808 86.06V125.5H111.928ZM180.775 125.5V67.9H189.135V125.5H180.775ZM201.147 125.5V67.9H237.947V75.78H209.507V91.94H233.147V99.82H209.507V117.62H237.947V125.5H201.147ZM247.553 125.5V67.9H256.033L284.393 110.7V67.9H292.873V125.5H284.393L256.033 82.66V125.5H247.553ZM320.053 125.5V67.9H342.693C346.346 67.9 349.413 68.6467 351.893 70.14C354.373 71.6333 356.24 73.5667 357.493 75.94C358.746 78.2867 359.373 80.7667 359.373 83.38C359.373 86.5533 358.586 89.2733 357.013 91.54C355.466 93.8067 353.373 95.3533 350.733 96.18L350.653 94.22C354.333 95.1267 357.16 96.9 359.133 99.54C361.106 102.153 362.093 105.207 362.093 108.7C362.093 112.087 361.413 115.033 360.053 117.54C358.72 120.047 356.76 122.007 354.173 123.42C351.613 124.807 348.506 125.5 344.853 125.5H320.053ZM328.533 117.54H343.573C345.466 117.54 347.16 117.18 348.653 116.46C350.173 115.74 351.36 114.713 352.213 113.38C353.093 112.02 353.533 110.407 353.533 108.54C353.533 106.807 353.146 105.247 352.373 103.86C351.626 102.447 350.533 101.34 349.093 100.54C347.68 99.7133 346.013 99.3 344.093 99.3H328.533V117.54ZM328.533 91.42H342.573C344.12 91.42 345.506 91.1133 346.733 90.5C347.986 89.86 348.973 88.9533 349.693 87.78C350.44 86.58 350.813 85.14 350.813 83.46C350.813 81.22 350.066 79.38 348.573 77.94C347.08 76.5 345.08 75.78 342.573 75.78H328.533V91.42ZM370.053 125.5V67.9H393.333C393.893 67.9 394.586 67.9267 395.413 67.98C396.24 68.0067 397.026 68.0867 397.773 68.22C400.973 68.7267 403.64 69.82 405.773 71.5C407.933 73.18 409.546 75.3 410.613 77.86C411.68 80.42 412.213 83.2467 412.213 86.34C412.213 90.9267 411.04 94.8867 408.693 98.22C406.346 101.527 402.826 103.593 398.133 104.42L394.733 104.82H378.413V125.5H370.053ZM403.733 125.5L392.373 102.06L400.813 99.9L413.293 125.5H403.733ZM378.413 96.9H393.013C393.546 96.9 394.133 96.8733 394.773 96.82C395.44 96.7667 396.066 96.6733 396.653 96.54C398.36 96.14 399.733 95.4067 400.773 94.34C401.813 93.2467 402.56 91.9933 403.013 90.58C403.466 89.1667 403.693 87.7533 403.693 86.34C403.693 84.9267 403.466 83.5267 403.013 82.14C402.56 80.7267 401.813 79.4867 400.773 78.42C399.733 77.3267 398.36 76.58 396.653 76.18C396.066 76.02 395.44 75.9133 394.773 75.86C394.133 75.8067 393.546 75.78 393.013 75.78H378.413V96.9ZM418.084 125.5L436.804 67.9H448.844L467.564 125.5H458.884L441.644 72.94H443.804L426.764 125.5H418.084ZM427.804 112.5V104.66H457.884V112.5H427.804ZM496.138 126.7C491.631 126.7 487.645 125.78 484.178 123.94C480.738 122.073 478.045 119.473 476.098 116.14C474.151 112.78 473.178 108.833 473.178 104.3V67.94L481.658 67.9V103.86C481.658 106.313 482.071 108.473 482.898 110.34C483.725 112.207 484.831 113.767 486.218 115.02C487.605 116.273 489.151 117.22 490.858 117.86C492.591 118.5 494.351 118.82 496.138 118.82C497.951 118.82 499.711 118.5 501.418 117.86C503.151 117.193 504.711 116.233 506.098 114.98C507.485 113.727 508.578 112.167 509.378 110.3C510.205 108.433 510.618 106.287 510.618 103.86V67.9H519.098V104.3C519.098 108.807 518.125 112.74 516.178 116.1C514.231 119.46 511.525 122.073 508.058 123.94C504.618 125.78 500.645 126.7 496.138 126.7ZM530.288 125.5V67.9H538.768L567.128 110.7V67.9H575.608V125.5H567.128L538.768 82.66V125.5H530.288Z" fill="#E5E5E7"/>
</svg>
